<mxfile host="app.diagrams.net" agent="Mozilla/5.0 (Windows NT 10.0; Win64; x64) AppleWebKit/537.36 (KHTML, like Gecko) Chrome/133.0.0.0 Safari/537.36" version="26.1.0">
  <diagram name="Trang-1" id="wn5TEgMEnXzSOMiMalEL">
    <mxGraphModel dx="2625" dy="1305" grid="1" gridSize="10" guides="1" tooltips="1" connect="1" arrows="1" fold="1" page="1" pageScale="1" pageWidth="827" pageHeight="1169" math="0" shadow="0">
      <root>
        <mxCell id="0" />
        <mxCell id="1" parent="0" />
        <mxCell id="Nh5hxRJggO41QT8DYPVS-11" style="rounded=0;orthogonalLoop=1;jettySize=auto;html=1;exitX=0;exitY=1;exitDx=0;exitDy=0;entryX=1;entryY=0;entryDx=0;entryDy=0;endArrow=none;startFill=0;" edge="1" parent="1" source="Nh5hxRJggO41QT8DYPVS-1" target="Nh5hxRJggO41QT8DYPVS-2">
          <mxGeometry relative="1" as="geometry" />
        </mxCell>
        <mxCell id="Nh5hxRJggO41QT8DYPVS-12" style="rounded=0;orthogonalLoop=1;jettySize=auto;html=1;exitX=1;exitY=1;exitDx=0;exitDy=0;entryX=0;entryY=0;entryDx=0;entryDy=0;endArrow=none;startFill=0;" edge="1" parent="1" source="Nh5hxRJggO41QT8DYPVS-1" target="Nh5hxRJggO41QT8DYPVS-3">
          <mxGeometry relative="1" as="geometry" />
        </mxCell>
        <mxCell id="Nh5hxRJggO41QT8DYPVS-1" value="10" style="ellipse;whiteSpace=wrap;html=1;aspect=fixed;" vertex="1" parent="1">
          <mxGeometry x="400" y="80" width="40" height="40" as="geometry" />
        </mxCell>
        <mxCell id="Nh5hxRJggO41QT8DYPVS-2" value="14" style="ellipse;whiteSpace=wrap;html=1;aspect=fixed;" vertex="1" parent="1">
          <mxGeometry x="280" y="200" width="40" height="40" as="geometry" />
        </mxCell>
        <mxCell id="Nh5hxRJggO41QT8DYPVS-3" value="19" style="ellipse;whiteSpace=wrap;html=1;aspect=fixed;" vertex="1" parent="1">
          <mxGeometry x="520" y="200" width="40" height="40" as="geometry" />
        </mxCell>
        <mxCell id="Nh5hxRJggO41QT8DYPVS-4" value="26" style="ellipse;whiteSpace=wrap;html=1;aspect=fixed;" vertex="1" parent="1">
          <mxGeometry x="200" y="320" width="40" height="40" as="geometry" />
        </mxCell>
        <mxCell id="Nh5hxRJggO41QT8DYPVS-5" value="31" style="ellipse;whiteSpace=wrap;html=1;aspect=fixed;" vertex="1" parent="1">
          <mxGeometry x="360" y="320" width="40" height="40" as="geometry" />
        </mxCell>
        <mxCell id="Nh5hxRJggO41QT8DYPVS-6" value="42" style="ellipse;whiteSpace=wrap;html=1;aspect=fixed;" vertex="1" parent="1">
          <mxGeometry x="440" y="320" width="40" height="40" as="geometry" />
        </mxCell>
        <mxCell id="Nh5hxRJggO41QT8DYPVS-7" value="27" style="ellipse;whiteSpace=wrap;html=1;aspect=fixed;" vertex="1" parent="1">
          <mxGeometry x="600" y="320" width="40" height="40" as="geometry" />
        </mxCell>
        <mxCell id="Nh5hxRJggO41QT8DYPVS-8" value="44" style="ellipse;whiteSpace=wrap;html=1;aspect=fixed;" vertex="1" parent="1">
          <mxGeometry x="160" y="440" width="40" height="40" as="geometry" />
        </mxCell>
        <mxCell id="Nh5hxRJggO41QT8DYPVS-9" value="35" style="ellipse;whiteSpace=wrap;html=1;aspect=fixed;" vertex="1" parent="1">
          <mxGeometry x="240" y="440" width="40" height="40" as="geometry" />
        </mxCell>
        <mxCell id="Nh5hxRJggO41QT8DYPVS-10" value="33" style="ellipse;whiteSpace=wrap;html=1;aspect=fixed;" vertex="1" parent="1">
          <mxGeometry x="320" y="440" width="40" height="40" as="geometry" />
        </mxCell>
        <mxCell id="Nh5hxRJggO41QT8DYPVS-13" style="rounded=0;orthogonalLoop=1;jettySize=auto;html=1;exitX=0.207;exitY=0.973;exitDx=0;exitDy=0;entryX=0.5;entryY=0;entryDx=0;entryDy=0;endArrow=none;startFill=0;exitPerimeter=0;" edge="1" parent="1" source="Nh5hxRJggO41QT8DYPVS-2" target="Nh5hxRJggO41QT8DYPVS-4">
          <mxGeometry relative="1" as="geometry">
            <mxPoint x="416" y="124" as="sourcePoint" />
            <mxPoint x="324" y="216" as="targetPoint" />
          </mxGeometry>
        </mxCell>
        <mxCell id="Nh5hxRJggO41QT8DYPVS-14" style="rounded=0;orthogonalLoop=1;jettySize=auto;html=1;exitX=0.72;exitY=0.958;exitDx=0;exitDy=0;entryX=0.5;entryY=0;entryDx=0;entryDy=0;endArrow=none;startFill=0;exitPerimeter=0;" edge="1" parent="1" source="Nh5hxRJggO41QT8DYPVS-3" target="Nh5hxRJggO41QT8DYPVS-7">
          <mxGeometry relative="1" as="geometry">
            <mxPoint x="298" y="249" as="sourcePoint" />
            <mxPoint x="230" y="330" as="targetPoint" />
          </mxGeometry>
        </mxCell>
        <mxCell id="Nh5hxRJggO41QT8DYPVS-16" style="rounded=0;orthogonalLoop=1;jettySize=auto;html=1;exitX=1;exitY=1;exitDx=0;exitDy=0;entryX=0.5;entryY=0;entryDx=0;entryDy=0;endArrow=none;startFill=0;" edge="1" parent="1" source="Nh5hxRJggO41QT8DYPVS-2" target="Nh5hxRJggO41QT8DYPVS-5">
          <mxGeometry relative="1" as="geometry">
            <mxPoint x="298" y="249" as="sourcePoint" />
            <mxPoint x="230" y="330" as="targetPoint" />
          </mxGeometry>
        </mxCell>
        <mxCell id="Nh5hxRJggO41QT8DYPVS-17" style="rounded=0;orthogonalLoop=1;jettySize=auto;html=1;exitX=0;exitY=1;exitDx=0;exitDy=0;entryX=0.5;entryY=0;entryDx=0;entryDy=0;endArrow=none;startFill=0;" edge="1" parent="1" source="Nh5hxRJggO41QT8DYPVS-3" target="Nh5hxRJggO41QT8DYPVS-6">
          <mxGeometry relative="1" as="geometry">
            <mxPoint x="324" y="244" as="sourcePoint" />
            <mxPoint x="390" y="330" as="targetPoint" />
          </mxGeometry>
        </mxCell>
        <mxCell id="Nh5hxRJggO41QT8DYPVS-18" style="rounded=0;orthogonalLoop=1;jettySize=auto;html=1;exitX=1;exitY=1;exitDx=0;exitDy=0;entryX=0.5;entryY=0;entryDx=0;entryDy=0;endArrow=none;startFill=0;" edge="1" parent="1" source="Nh5hxRJggO41QT8DYPVS-4" target="Nh5hxRJggO41QT8DYPVS-9">
          <mxGeometry relative="1" as="geometry">
            <mxPoint x="298" y="249" as="sourcePoint" />
            <mxPoint x="230" y="330" as="targetPoint" />
          </mxGeometry>
        </mxCell>
        <mxCell id="Nh5hxRJggO41QT8DYPVS-19" style="rounded=0;orthogonalLoop=1;jettySize=auto;html=1;exitX=0;exitY=1;exitDx=0;exitDy=0;entryX=0.5;entryY=0;entryDx=0;entryDy=0;endArrow=none;startFill=0;" edge="1" parent="1" source="Nh5hxRJggO41QT8DYPVS-4" target="Nh5hxRJggO41QT8DYPVS-8">
          <mxGeometry relative="1" as="geometry">
            <mxPoint x="308" y="259" as="sourcePoint" />
            <mxPoint x="240" y="340" as="targetPoint" />
          </mxGeometry>
        </mxCell>
        <mxCell id="Nh5hxRJggO41QT8DYPVS-20" style="rounded=0;orthogonalLoop=1;jettySize=auto;html=1;exitX=0;exitY=1;exitDx=0;exitDy=0;entryX=0.5;entryY=0;entryDx=0;entryDy=0;endArrow=none;startFill=0;" edge="1" parent="1" source="Nh5hxRJggO41QT8DYPVS-5" target="Nh5hxRJggO41QT8DYPVS-10">
          <mxGeometry relative="1" as="geometry">
            <mxPoint x="216" y="364" as="sourcePoint" />
            <mxPoint x="190" y="450" as="targetPoint" />
          </mxGeometry>
        </mxCell>
        <mxCell id="Nh5hxRJggO41QT8DYPVS-21" value="8" style="ellipse;whiteSpace=wrap;html=1;aspect=fixed;fillColor=#dae8fc;strokeColor=#6c8ebf;" vertex="1" parent="1">
          <mxGeometry x="400" y="440" width="40" height="40" as="geometry" />
        </mxCell>
        <mxCell id="Nh5hxRJggO41QT8DYPVS-22" style="rounded=0;orthogonalLoop=1;jettySize=auto;html=1;exitX=1;exitY=1;exitDx=0;exitDy=0;entryX=0.5;entryY=0;entryDx=0;entryDy=0;endArrow=none;startFill=0;" edge="1" parent="1" source="Nh5hxRJggO41QT8DYPVS-5" target="Nh5hxRJggO41QT8DYPVS-21">
          <mxGeometry relative="1" as="geometry">
            <mxPoint x="376" y="364" as="sourcePoint" />
            <mxPoint x="350" y="450" as="targetPoint" />
          </mxGeometry>
        </mxCell>
        <mxCell id="Nh5hxRJggO41QT8DYPVS-23" value="INSERT 8" style="whiteSpace=wrap;html=1;" vertex="1" parent="1">
          <mxGeometry x="40" y="50" width="120" height="60" as="geometry" />
        </mxCell>
        <mxCell id="Nh5hxRJggO41QT8DYPVS-45" style="rounded=0;orthogonalLoop=1;jettySize=auto;html=1;exitX=0;exitY=1;exitDx=0;exitDy=0;entryX=1;entryY=0;entryDx=0;entryDy=0;endArrow=none;startFill=0;" edge="1" parent="1" source="Nh5hxRJggO41QT8DYPVS-47" target="Nh5hxRJggO41QT8DYPVS-48">
          <mxGeometry relative="1" as="geometry" />
        </mxCell>
        <mxCell id="Nh5hxRJggO41QT8DYPVS-46" style="rounded=0;orthogonalLoop=1;jettySize=auto;html=1;exitX=1;exitY=1;exitDx=0;exitDy=0;entryX=0;entryY=0;entryDx=0;entryDy=0;endArrow=none;startFill=0;" edge="1" parent="1" source="Nh5hxRJggO41QT8DYPVS-47" target="Nh5hxRJggO41QT8DYPVS-49">
          <mxGeometry relative="1" as="geometry" />
        </mxCell>
        <mxCell id="Nh5hxRJggO41QT8DYPVS-47" value="10" style="ellipse;whiteSpace=wrap;html=1;aspect=fixed;" vertex="1" parent="1">
          <mxGeometry x="1000" y="80" width="40" height="40" as="geometry" />
        </mxCell>
        <mxCell id="Nh5hxRJggO41QT8DYPVS-48" value="14" style="ellipse;whiteSpace=wrap;html=1;aspect=fixed;" vertex="1" parent="1">
          <mxGeometry x="880" y="200" width="40" height="40" as="geometry" />
        </mxCell>
        <mxCell id="Nh5hxRJggO41QT8DYPVS-49" value="19" style="ellipse;whiteSpace=wrap;html=1;aspect=fixed;" vertex="1" parent="1">
          <mxGeometry x="1120" y="200" width="40" height="40" as="geometry" />
        </mxCell>
        <mxCell id="Nh5hxRJggO41QT8DYPVS-50" value="26" style="ellipse;whiteSpace=wrap;html=1;aspect=fixed;" vertex="1" parent="1">
          <mxGeometry x="800" y="320" width="40" height="40" as="geometry" />
        </mxCell>
        <mxCell id="Nh5hxRJggO41QT8DYPVS-51" value="8" style="ellipse;whiteSpace=wrap;html=1;aspect=fixed;fillColor=#dae8fc;strokeColor=#6c8ebf;" vertex="1" parent="1">
          <mxGeometry x="960" y="320" width="40" height="40" as="geometry" />
        </mxCell>
        <mxCell id="Nh5hxRJggO41QT8DYPVS-52" value="42" style="ellipse;whiteSpace=wrap;html=1;aspect=fixed;" vertex="1" parent="1">
          <mxGeometry x="1040" y="320" width="40" height="40" as="geometry" />
        </mxCell>
        <mxCell id="Nh5hxRJggO41QT8DYPVS-53" value="27" style="ellipse;whiteSpace=wrap;html=1;aspect=fixed;" vertex="1" parent="1">
          <mxGeometry x="1200" y="320" width="40" height="40" as="geometry" />
        </mxCell>
        <mxCell id="Nh5hxRJggO41QT8DYPVS-54" value="44" style="ellipse;whiteSpace=wrap;html=1;aspect=fixed;" vertex="1" parent="1">
          <mxGeometry x="760" y="440" width="40" height="40" as="geometry" />
        </mxCell>
        <mxCell id="Nh5hxRJggO41QT8DYPVS-55" value="35" style="ellipse;whiteSpace=wrap;html=1;aspect=fixed;" vertex="1" parent="1">
          <mxGeometry x="840" y="440" width="40" height="40" as="geometry" />
        </mxCell>
        <mxCell id="Nh5hxRJggO41QT8DYPVS-56" value="33" style="ellipse;whiteSpace=wrap;html=1;aspect=fixed;" vertex="1" parent="1">
          <mxGeometry x="920" y="440" width="40" height="40" as="geometry" />
        </mxCell>
        <mxCell id="Nh5hxRJggO41QT8DYPVS-57" style="rounded=0;orthogonalLoop=1;jettySize=auto;html=1;exitX=0.207;exitY=0.973;exitDx=0;exitDy=0;entryX=0.5;entryY=0;entryDx=0;entryDy=0;endArrow=none;startFill=0;exitPerimeter=0;" edge="1" parent="1" source="Nh5hxRJggO41QT8DYPVS-48" target="Nh5hxRJggO41QT8DYPVS-50">
          <mxGeometry relative="1" as="geometry">
            <mxPoint x="1016" y="124" as="sourcePoint" />
            <mxPoint x="924" y="216" as="targetPoint" />
          </mxGeometry>
        </mxCell>
        <mxCell id="Nh5hxRJggO41QT8DYPVS-58" style="rounded=0;orthogonalLoop=1;jettySize=auto;html=1;exitX=0.72;exitY=0.958;exitDx=0;exitDy=0;entryX=0.5;entryY=0;entryDx=0;entryDy=0;endArrow=none;startFill=0;exitPerimeter=0;" edge="1" parent="1" source="Nh5hxRJggO41QT8DYPVS-49" target="Nh5hxRJggO41QT8DYPVS-53">
          <mxGeometry relative="1" as="geometry">
            <mxPoint x="898" y="249" as="sourcePoint" />
            <mxPoint x="830" y="330" as="targetPoint" />
          </mxGeometry>
        </mxCell>
        <mxCell id="Nh5hxRJggO41QT8DYPVS-59" style="rounded=0;orthogonalLoop=1;jettySize=auto;html=1;exitX=1;exitY=1;exitDx=0;exitDy=0;entryX=0.5;entryY=0;entryDx=0;entryDy=0;endArrow=none;startFill=0;" edge="1" parent="1" source="Nh5hxRJggO41QT8DYPVS-48" target="Nh5hxRJggO41QT8DYPVS-51">
          <mxGeometry relative="1" as="geometry">
            <mxPoint x="898" y="249" as="sourcePoint" />
            <mxPoint x="830" y="330" as="targetPoint" />
          </mxGeometry>
        </mxCell>
        <mxCell id="Nh5hxRJggO41QT8DYPVS-60" style="rounded=0;orthogonalLoop=1;jettySize=auto;html=1;exitX=0;exitY=1;exitDx=0;exitDy=0;entryX=0.5;entryY=0;entryDx=0;entryDy=0;endArrow=none;startFill=0;" edge="1" parent="1" source="Nh5hxRJggO41QT8DYPVS-49" target="Nh5hxRJggO41QT8DYPVS-52">
          <mxGeometry relative="1" as="geometry">
            <mxPoint x="924" y="244" as="sourcePoint" />
            <mxPoint x="990" y="330" as="targetPoint" />
          </mxGeometry>
        </mxCell>
        <mxCell id="Nh5hxRJggO41QT8DYPVS-61" style="rounded=0;orthogonalLoop=1;jettySize=auto;html=1;exitX=1;exitY=1;exitDx=0;exitDy=0;entryX=0.5;entryY=0;entryDx=0;entryDy=0;endArrow=none;startFill=0;" edge="1" parent="1" source="Nh5hxRJggO41QT8DYPVS-50" target="Nh5hxRJggO41QT8DYPVS-55">
          <mxGeometry relative="1" as="geometry">
            <mxPoint x="898" y="249" as="sourcePoint" />
            <mxPoint x="830" y="330" as="targetPoint" />
          </mxGeometry>
        </mxCell>
        <mxCell id="Nh5hxRJggO41QT8DYPVS-62" style="rounded=0;orthogonalLoop=1;jettySize=auto;html=1;exitX=0;exitY=1;exitDx=0;exitDy=0;entryX=0.5;entryY=0;entryDx=0;entryDy=0;endArrow=none;startFill=0;" edge="1" parent="1" source="Nh5hxRJggO41QT8DYPVS-50" target="Nh5hxRJggO41QT8DYPVS-54">
          <mxGeometry relative="1" as="geometry">
            <mxPoint x="908" y="259" as="sourcePoint" />
            <mxPoint x="840" y="340" as="targetPoint" />
          </mxGeometry>
        </mxCell>
        <mxCell id="Nh5hxRJggO41QT8DYPVS-63" style="rounded=0;orthogonalLoop=1;jettySize=auto;html=1;exitX=0;exitY=1;exitDx=0;exitDy=0;entryX=0.5;entryY=0;entryDx=0;entryDy=0;endArrow=none;startFill=0;" edge="1" parent="1" source="Nh5hxRJggO41QT8DYPVS-51" target="Nh5hxRJggO41QT8DYPVS-56">
          <mxGeometry relative="1" as="geometry">
            <mxPoint x="816" y="364" as="sourcePoint" />
            <mxPoint x="790" y="450" as="targetPoint" />
          </mxGeometry>
        </mxCell>
        <mxCell id="Nh5hxRJggO41QT8DYPVS-64" value="31" style="ellipse;whiteSpace=wrap;html=1;aspect=fixed;" vertex="1" parent="1">
          <mxGeometry x="1000" y="440" width="40" height="40" as="geometry" />
        </mxCell>
        <mxCell id="Nh5hxRJggO41QT8DYPVS-65" style="rounded=0;orthogonalLoop=1;jettySize=auto;html=1;exitX=1;exitY=1;exitDx=0;exitDy=0;entryX=0.5;entryY=0;entryDx=0;entryDy=0;endArrow=none;startFill=0;" edge="1" parent="1" source="Nh5hxRJggO41QT8DYPVS-51" target="Nh5hxRJggO41QT8DYPVS-64">
          <mxGeometry relative="1" as="geometry">
            <mxPoint x="976" y="364" as="sourcePoint" />
            <mxPoint x="950" y="450" as="targetPoint" />
          </mxGeometry>
        </mxCell>
        <mxCell id="Nh5hxRJggO41QT8DYPVS-66" style="rounded=0;orthogonalLoop=1;jettySize=auto;html=1;exitX=0;exitY=1;exitDx=0;exitDy=0;entryX=1;entryY=0;entryDx=0;entryDy=0;endArrow=none;startFill=0;" edge="1" parent="1" source="Nh5hxRJggO41QT8DYPVS-68" target="Nh5hxRJggO41QT8DYPVS-69">
          <mxGeometry relative="1" as="geometry" />
        </mxCell>
        <mxCell id="Nh5hxRJggO41QT8DYPVS-67" style="rounded=0;orthogonalLoop=1;jettySize=auto;html=1;exitX=1;exitY=1;exitDx=0;exitDy=0;entryX=0;entryY=0;entryDx=0;entryDy=0;endArrow=none;startFill=0;" edge="1" parent="1" source="Nh5hxRJggO41QT8DYPVS-68" target="Nh5hxRJggO41QT8DYPVS-70">
          <mxGeometry relative="1" as="geometry" />
        </mxCell>
        <mxCell id="Nh5hxRJggO41QT8DYPVS-68" value="10" style="ellipse;whiteSpace=wrap;html=1;aspect=fixed;" vertex="1" parent="1">
          <mxGeometry x="400" y="560" width="40" height="40" as="geometry" />
        </mxCell>
        <mxCell id="Nh5hxRJggO41QT8DYPVS-69" value="8" style="ellipse;whiteSpace=wrap;html=1;aspect=fixed;fillColor=#dae8fc;strokeColor=#6c8ebf;" vertex="1" parent="1">
          <mxGeometry x="280" y="680" width="40" height="40" as="geometry" />
        </mxCell>
        <mxCell id="Nh5hxRJggO41QT8DYPVS-70" value="19" style="ellipse;whiteSpace=wrap;html=1;aspect=fixed;" vertex="1" parent="1">
          <mxGeometry x="520" y="680" width="40" height="40" as="geometry" />
        </mxCell>
        <mxCell id="Nh5hxRJggO41QT8DYPVS-71" value="26" style="ellipse;whiteSpace=wrap;html=1;aspect=fixed;" vertex="1" parent="1">
          <mxGeometry x="200" y="800" width="40" height="40" as="geometry" />
        </mxCell>
        <mxCell id="Nh5hxRJggO41QT8DYPVS-72" value="14" style="ellipse;whiteSpace=wrap;html=1;aspect=fixed;" vertex="1" parent="1">
          <mxGeometry x="360" y="800" width="40" height="40" as="geometry" />
        </mxCell>
        <mxCell id="Nh5hxRJggO41QT8DYPVS-73" value="42" style="ellipse;whiteSpace=wrap;html=1;aspect=fixed;" vertex="1" parent="1">
          <mxGeometry x="440" y="800" width="40" height="40" as="geometry" />
        </mxCell>
        <mxCell id="Nh5hxRJggO41QT8DYPVS-74" value="27" style="ellipse;whiteSpace=wrap;html=1;aspect=fixed;" vertex="1" parent="1">
          <mxGeometry x="600" y="800" width="40" height="40" as="geometry" />
        </mxCell>
        <mxCell id="Nh5hxRJggO41QT8DYPVS-75" value="44" style="ellipse;whiteSpace=wrap;html=1;aspect=fixed;" vertex="1" parent="1">
          <mxGeometry x="160" y="920" width="40" height="40" as="geometry" />
        </mxCell>
        <mxCell id="Nh5hxRJggO41QT8DYPVS-76" value="35" style="ellipse;whiteSpace=wrap;html=1;aspect=fixed;" vertex="1" parent="1">
          <mxGeometry x="240" y="920" width="40" height="40" as="geometry" />
        </mxCell>
        <mxCell id="Nh5hxRJggO41QT8DYPVS-77" value="33" style="ellipse;whiteSpace=wrap;html=1;aspect=fixed;" vertex="1" parent="1">
          <mxGeometry x="320" y="920" width="40" height="40" as="geometry" />
        </mxCell>
        <mxCell id="Nh5hxRJggO41QT8DYPVS-78" style="rounded=0;orthogonalLoop=1;jettySize=auto;html=1;exitX=0.207;exitY=0.973;exitDx=0;exitDy=0;entryX=0.5;entryY=0;entryDx=0;entryDy=0;endArrow=none;startFill=0;exitPerimeter=0;" edge="1" parent="1" source="Nh5hxRJggO41QT8DYPVS-69" target="Nh5hxRJggO41QT8DYPVS-71">
          <mxGeometry relative="1" as="geometry">
            <mxPoint x="416" y="604" as="sourcePoint" />
            <mxPoint x="324" y="696" as="targetPoint" />
          </mxGeometry>
        </mxCell>
        <mxCell id="Nh5hxRJggO41QT8DYPVS-79" style="rounded=0;orthogonalLoop=1;jettySize=auto;html=1;exitX=0.72;exitY=0.958;exitDx=0;exitDy=0;entryX=0.5;entryY=0;entryDx=0;entryDy=0;endArrow=none;startFill=0;exitPerimeter=0;" edge="1" parent="1" source="Nh5hxRJggO41QT8DYPVS-70" target="Nh5hxRJggO41QT8DYPVS-74">
          <mxGeometry relative="1" as="geometry">
            <mxPoint x="298" y="729" as="sourcePoint" />
            <mxPoint x="230" y="810" as="targetPoint" />
          </mxGeometry>
        </mxCell>
        <mxCell id="Nh5hxRJggO41QT8DYPVS-80" style="rounded=0;orthogonalLoop=1;jettySize=auto;html=1;exitX=1;exitY=1;exitDx=0;exitDy=0;entryX=0.5;entryY=0;entryDx=0;entryDy=0;endArrow=none;startFill=0;" edge="1" parent="1" source="Nh5hxRJggO41QT8DYPVS-69" target="Nh5hxRJggO41QT8DYPVS-72">
          <mxGeometry relative="1" as="geometry">
            <mxPoint x="298" y="729" as="sourcePoint" />
            <mxPoint x="230" y="810" as="targetPoint" />
          </mxGeometry>
        </mxCell>
        <mxCell id="Nh5hxRJggO41QT8DYPVS-81" style="rounded=0;orthogonalLoop=1;jettySize=auto;html=1;exitX=0;exitY=1;exitDx=0;exitDy=0;entryX=0.5;entryY=0;entryDx=0;entryDy=0;endArrow=none;startFill=0;" edge="1" parent="1" source="Nh5hxRJggO41QT8DYPVS-70" target="Nh5hxRJggO41QT8DYPVS-73">
          <mxGeometry relative="1" as="geometry">
            <mxPoint x="324" y="724" as="sourcePoint" />
            <mxPoint x="390" y="810" as="targetPoint" />
          </mxGeometry>
        </mxCell>
        <mxCell id="Nh5hxRJggO41QT8DYPVS-82" style="rounded=0;orthogonalLoop=1;jettySize=auto;html=1;exitX=1;exitY=1;exitDx=0;exitDy=0;entryX=0.5;entryY=0;entryDx=0;entryDy=0;endArrow=none;startFill=0;" edge="1" parent="1" source="Nh5hxRJggO41QT8DYPVS-71" target="Nh5hxRJggO41QT8DYPVS-76">
          <mxGeometry relative="1" as="geometry">
            <mxPoint x="298" y="729" as="sourcePoint" />
            <mxPoint x="230" y="810" as="targetPoint" />
          </mxGeometry>
        </mxCell>
        <mxCell id="Nh5hxRJggO41QT8DYPVS-83" style="rounded=0;orthogonalLoop=1;jettySize=auto;html=1;exitX=0;exitY=1;exitDx=0;exitDy=0;entryX=0.5;entryY=0;entryDx=0;entryDy=0;endArrow=none;startFill=0;" edge="1" parent="1" source="Nh5hxRJggO41QT8DYPVS-71" target="Nh5hxRJggO41QT8DYPVS-75">
          <mxGeometry relative="1" as="geometry">
            <mxPoint x="308" y="739" as="sourcePoint" />
            <mxPoint x="240" y="820" as="targetPoint" />
          </mxGeometry>
        </mxCell>
        <mxCell id="Nh5hxRJggO41QT8DYPVS-84" style="rounded=0;orthogonalLoop=1;jettySize=auto;html=1;exitX=0;exitY=1;exitDx=0;exitDy=0;entryX=0.5;entryY=0;entryDx=0;entryDy=0;endArrow=none;startFill=0;" edge="1" parent="1" source="Nh5hxRJggO41QT8DYPVS-72" target="Nh5hxRJggO41QT8DYPVS-77">
          <mxGeometry relative="1" as="geometry">
            <mxPoint x="216" y="844" as="sourcePoint" />
            <mxPoint x="190" y="930" as="targetPoint" />
          </mxGeometry>
        </mxCell>
        <mxCell id="Nh5hxRJggO41QT8DYPVS-85" value="31" style="ellipse;whiteSpace=wrap;html=1;aspect=fixed;" vertex="1" parent="1">
          <mxGeometry x="400" y="920" width="40" height="40" as="geometry" />
        </mxCell>
        <mxCell id="Nh5hxRJggO41QT8DYPVS-86" style="rounded=0;orthogonalLoop=1;jettySize=auto;html=1;exitX=1;exitY=1;exitDx=0;exitDy=0;entryX=0.5;entryY=0;entryDx=0;entryDy=0;endArrow=none;startFill=0;" edge="1" parent="1" source="Nh5hxRJggO41QT8DYPVS-72" target="Nh5hxRJggO41QT8DYPVS-85">
          <mxGeometry relative="1" as="geometry">
            <mxPoint x="376" y="844" as="sourcePoint" />
            <mxPoint x="350" y="930" as="targetPoint" />
          </mxGeometry>
        </mxCell>
        <mxCell id="Nh5hxRJggO41QT8DYPVS-89" style="rounded=0;orthogonalLoop=1;jettySize=auto;html=1;exitX=0;exitY=1;exitDx=0;exitDy=0;entryX=1;entryY=0;entryDx=0;entryDy=0;endArrow=none;startFill=0;" edge="1" parent="1" source="Nh5hxRJggO41QT8DYPVS-91" target="Nh5hxRJggO41QT8DYPVS-92">
          <mxGeometry relative="1" as="geometry" />
        </mxCell>
        <mxCell id="Nh5hxRJggO41QT8DYPVS-90" style="rounded=0;orthogonalLoop=1;jettySize=auto;html=1;exitX=1;exitY=1;exitDx=0;exitDy=0;entryX=0;entryY=0;entryDx=0;entryDy=0;endArrow=none;startFill=0;" edge="1" parent="1" source="Nh5hxRJggO41QT8DYPVS-91" target="Nh5hxRJggO41QT8DYPVS-93">
          <mxGeometry relative="1" as="geometry" />
        </mxCell>
        <mxCell id="Nh5hxRJggO41QT8DYPVS-91" value="8" style="ellipse;whiteSpace=wrap;html=1;aspect=fixed;fillColor=#dae8fc;strokeColor=#6c8ebf;" vertex="1" parent="1">
          <mxGeometry x="1001" y="560" width="40" height="40" as="geometry" />
        </mxCell>
        <mxCell id="Nh5hxRJggO41QT8DYPVS-92" value="10" style="ellipse;whiteSpace=wrap;html=1;aspect=fixed;" vertex="1" parent="1">
          <mxGeometry x="881" y="680" width="40" height="40" as="geometry" />
        </mxCell>
        <mxCell id="Nh5hxRJggO41QT8DYPVS-93" value="19" style="ellipse;whiteSpace=wrap;html=1;aspect=fixed;" vertex="1" parent="1">
          <mxGeometry x="1121" y="680" width="40" height="40" as="geometry" />
        </mxCell>
        <mxCell id="Nh5hxRJggO41QT8DYPVS-94" value="26" style="ellipse;whiteSpace=wrap;html=1;aspect=fixed;" vertex="1" parent="1">
          <mxGeometry x="801" y="800" width="40" height="40" as="geometry" />
        </mxCell>
        <mxCell id="Nh5hxRJggO41QT8DYPVS-95" value="14" style="ellipse;whiteSpace=wrap;html=1;aspect=fixed;" vertex="1" parent="1">
          <mxGeometry x="961" y="800" width="40" height="40" as="geometry" />
        </mxCell>
        <mxCell id="Nh5hxRJggO41QT8DYPVS-96" value="42" style="ellipse;whiteSpace=wrap;html=1;aspect=fixed;" vertex="1" parent="1">
          <mxGeometry x="1041" y="800" width="40" height="40" as="geometry" />
        </mxCell>
        <mxCell id="Nh5hxRJggO41QT8DYPVS-97" value="27" style="ellipse;whiteSpace=wrap;html=1;aspect=fixed;" vertex="1" parent="1">
          <mxGeometry x="1201" y="800" width="40" height="40" as="geometry" />
        </mxCell>
        <mxCell id="Nh5hxRJggO41QT8DYPVS-98" value="44" style="ellipse;whiteSpace=wrap;html=1;aspect=fixed;" vertex="1" parent="1">
          <mxGeometry x="761" y="920" width="40" height="40" as="geometry" />
        </mxCell>
        <mxCell id="Nh5hxRJggO41QT8DYPVS-99" value="35" style="ellipse;whiteSpace=wrap;html=1;aspect=fixed;" vertex="1" parent="1">
          <mxGeometry x="841" y="920" width="40" height="40" as="geometry" />
        </mxCell>
        <mxCell id="Nh5hxRJggO41QT8DYPVS-100" value="33" style="ellipse;whiteSpace=wrap;html=1;aspect=fixed;" vertex="1" parent="1">
          <mxGeometry x="921" y="920" width="40" height="40" as="geometry" />
        </mxCell>
        <mxCell id="Nh5hxRJggO41QT8DYPVS-101" style="rounded=0;orthogonalLoop=1;jettySize=auto;html=1;exitX=0.207;exitY=0.973;exitDx=0;exitDy=0;entryX=0.5;entryY=0;entryDx=0;entryDy=0;endArrow=none;startFill=0;exitPerimeter=0;" edge="1" parent="1" source="Nh5hxRJggO41QT8DYPVS-92" target="Nh5hxRJggO41QT8DYPVS-94">
          <mxGeometry relative="1" as="geometry">
            <mxPoint x="1017" y="604" as="sourcePoint" />
            <mxPoint x="925" y="696" as="targetPoint" />
          </mxGeometry>
        </mxCell>
        <mxCell id="Nh5hxRJggO41QT8DYPVS-102" style="rounded=0;orthogonalLoop=1;jettySize=auto;html=1;exitX=0.72;exitY=0.958;exitDx=0;exitDy=0;entryX=0.5;entryY=0;entryDx=0;entryDy=0;endArrow=none;startFill=0;exitPerimeter=0;" edge="1" parent="1" source="Nh5hxRJggO41QT8DYPVS-93" target="Nh5hxRJggO41QT8DYPVS-97">
          <mxGeometry relative="1" as="geometry">
            <mxPoint x="899" y="729" as="sourcePoint" />
            <mxPoint x="831" y="810" as="targetPoint" />
          </mxGeometry>
        </mxCell>
        <mxCell id="Nh5hxRJggO41QT8DYPVS-103" style="rounded=0;orthogonalLoop=1;jettySize=auto;html=1;exitX=1;exitY=1;exitDx=0;exitDy=0;entryX=0.5;entryY=0;entryDx=0;entryDy=0;endArrow=none;startFill=0;" edge="1" parent="1" source="Nh5hxRJggO41QT8DYPVS-92" target="Nh5hxRJggO41QT8DYPVS-95">
          <mxGeometry relative="1" as="geometry">
            <mxPoint x="899" y="729" as="sourcePoint" />
            <mxPoint x="831" y="810" as="targetPoint" />
          </mxGeometry>
        </mxCell>
        <mxCell id="Nh5hxRJggO41QT8DYPVS-104" style="rounded=0;orthogonalLoop=1;jettySize=auto;html=1;exitX=0;exitY=1;exitDx=0;exitDy=0;entryX=0.5;entryY=0;entryDx=0;entryDy=0;endArrow=none;startFill=0;" edge="1" parent="1" source="Nh5hxRJggO41QT8DYPVS-93" target="Nh5hxRJggO41QT8DYPVS-96">
          <mxGeometry relative="1" as="geometry">
            <mxPoint x="925" y="724" as="sourcePoint" />
            <mxPoint x="991" y="810" as="targetPoint" />
          </mxGeometry>
        </mxCell>
        <mxCell id="Nh5hxRJggO41QT8DYPVS-105" style="rounded=0;orthogonalLoop=1;jettySize=auto;html=1;exitX=1;exitY=1;exitDx=0;exitDy=0;entryX=0.5;entryY=0;entryDx=0;entryDy=0;endArrow=none;startFill=0;" edge="1" parent="1" source="Nh5hxRJggO41QT8DYPVS-94" target="Nh5hxRJggO41QT8DYPVS-99">
          <mxGeometry relative="1" as="geometry">
            <mxPoint x="899" y="729" as="sourcePoint" />
            <mxPoint x="831" y="810" as="targetPoint" />
          </mxGeometry>
        </mxCell>
        <mxCell id="Nh5hxRJggO41QT8DYPVS-106" style="rounded=0;orthogonalLoop=1;jettySize=auto;html=1;exitX=0;exitY=1;exitDx=0;exitDy=0;entryX=0.5;entryY=0;entryDx=0;entryDy=0;endArrow=none;startFill=0;" edge="1" parent="1" source="Nh5hxRJggO41QT8DYPVS-94" target="Nh5hxRJggO41QT8DYPVS-98">
          <mxGeometry relative="1" as="geometry">
            <mxPoint x="909" y="739" as="sourcePoint" />
            <mxPoint x="841" y="820" as="targetPoint" />
          </mxGeometry>
        </mxCell>
        <mxCell id="Nh5hxRJggO41QT8DYPVS-107" style="rounded=0;orthogonalLoop=1;jettySize=auto;html=1;exitX=0;exitY=1;exitDx=0;exitDy=0;entryX=0.5;entryY=0;entryDx=0;entryDy=0;endArrow=none;startFill=0;" edge="1" parent="1" source="Nh5hxRJggO41QT8DYPVS-95" target="Nh5hxRJggO41QT8DYPVS-100">
          <mxGeometry relative="1" as="geometry">
            <mxPoint x="817" y="844" as="sourcePoint" />
            <mxPoint x="791" y="930" as="targetPoint" />
          </mxGeometry>
        </mxCell>
        <mxCell id="Nh5hxRJggO41QT8DYPVS-108" value="31" style="ellipse;whiteSpace=wrap;html=1;aspect=fixed;" vertex="1" parent="1">
          <mxGeometry x="1001" y="920" width="40" height="40" as="geometry" />
        </mxCell>
        <mxCell id="Nh5hxRJggO41QT8DYPVS-109" style="rounded=0;orthogonalLoop=1;jettySize=auto;html=1;exitX=1;exitY=1;exitDx=0;exitDy=0;entryX=0.5;entryY=0;entryDx=0;entryDy=0;endArrow=none;startFill=0;" edge="1" parent="1" source="Nh5hxRJggO41QT8DYPVS-95" target="Nh5hxRJggO41QT8DYPVS-108">
          <mxGeometry relative="1" as="geometry">
            <mxPoint x="977" y="844" as="sourcePoint" />
            <mxPoint x="951" y="930" as="targetPoint" />
          </mxGeometry>
        </mxCell>
        <mxCell id="Nh5hxRJggO41QT8DYPVS-110" value="DELETE MIN" style="whiteSpace=wrap;html=1;" vertex="1" parent="1">
          <mxGeometry x="40" y="1040" width="120" height="60" as="geometry" />
        </mxCell>
        <mxCell id="Nh5hxRJggO41QT8DYPVS-132" style="rounded=0;orthogonalLoop=1;jettySize=auto;html=1;exitX=0;exitY=1;exitDx=0;exitDy=0;entryX=1;entryY=0;entryDx=0;entryDy=0;endArrow=none;startFill=0;" edge="1" parent="1" target="Nh5hxRJggO41QT8DYPVS-135">
          <mxGeometry relative="1" as="geometry">
            <mxPoint x="405.85786437626916" y="1190.002135623731" as="sourcePoint" />
          </mxGeometry>
        </mxCell>
        <mxCell id="Nh5hxRJggO41QT8DYPVS-133" style="rounded=0;orthogonalLoop=1;jettySize=auto;html=1;exitX=1;exitY=1;exitDx=0;exitDy=0;entryX=0;entryY=0;entryDx=0;entryDy=0;endArrow=none;startFill=0;" edge="1" parent="1" target="Nh5hxRJggO41QT8DYPVS-136">
          <mxGeometry relative="1" as="geometry">
            <mxPoint x="434.14213562373084" y="1190.002135623731" as="sourcePoint" />
          </mxGeometry>
        </mxCell>
        <mxCell id="Nh5hxRJggO41QT8DYPVS-135" value="10" style="ellipse;whiteSpace=wrap;html=1;aspect=fixed;" vertex="1" parent="1">
          <mxGeometry x="280" y="1275.86" width="40" height="40" as="geometry" />
        </mxCell>
        <mxCell id="Nh5hxRJggO41QT8DYPVS-136" value="19" style="ellipse;whiteSpace=wrap;html=1;aspect=fixed;" vertex="1" parent="1">
          <mxGeometry x="520" y="1275.86" width="40" height="40" as="geometry" />
        </mxCell>
        <mxCell id="Nh5hxRJggO41QT8DYPVS-137" value="26" style="ellipse;whiteSpace=wrap;html=1;aspect=fixed;" vertex="1" parent="1">
          <mxGeometry x="200" y="1395.86" width="40" height="40" as="geometry" />
        </mxCell>
        <mxCell id="Nh5hxRJggO41QT8DYPVS-138" value="14" style="ellipse;whiteSpace=wrap;html=1;aspect=fixed;" vertex="1" parent="1">
          <mxGeometry x="360" y="1395.86" width="40" height="40" as="geometry" />
        </mxCell>
        <mxCell id="Nh5hxRJggO41QT8DYPVS-139" value="42" style="ellipse;whiteSpace=wrap;html=1;aspect=fixed;" vertex="1" parent="1">
          <mxGeometry x="440" y="1395.86" width="40" height="40" as="geometry" />
        </mxCell>
        <mxCell id="Nh5hxRJggO41QT8DYPVS-140" value="27" style="ellipse;whiteSpace=wrap;html=1;aspect=fixed;" vertex="1" parent="1">
          <mxGeometry x="600" y="1395.86" width="40" height="40" as="geometry" />
        </mxCell>
        <mxCell id="Nh5hxRJggO41QT8DYPVS-141" value="44" style="ellipse;whiteSpace=wrap;html=1;aspect=fixed;" vertex="1" parent="1">
          <mxGeometry x="160" y="1515.86" width="40" height="40" as="geometry" />
        </mxCell>
        <mxCell id="Nh5hxRJggO41QT8DYPVS-142" value="35" style="ellipse;whiteSpace=wrap;html=1;aspect=fixed;" vertex="1" parent="1">
          <mxGeometry x="240" y="1515.86" width="40" height="40" as="geometry" />
        </mxCell>
        <mxCell id="Nh5hxRJggO41QT8DYPVS-143" value="33" style="ellipse;whiteSpace=wrap;html=1;aspect=fixed;" vertex="1" parent="1">
          <mxGeometry x="320" y="1515.86" width="40" height="40" as="geometry" />
        </mxCell>
        <mxCell id="Nh5hxRJggO41QT8DYPVS-144" style="rounded=0;orthogonalLoop=1;jettySize=auto;html=1;exitX=0;exitY=1;exitDx=0;exitDy=0;entryX=0.5;entryY=0;entryDx=0;entryDy=0;endArrow=none;startFill=0;" edge="1" parent="1" source="Nh5hxRJggO41QT8DYPVS-135" target="Nh5hxRJggO41QT8DYPVS-137">
          <mxGeometry relative="1" as="geometry">
            <mxPoint x="416" y="1199.86" as="sourcePoint" />
            <mxPoint x="324" y="1291.86" as="targetPoint" />
          </mxGeometry>
        </mxCell>
        <mxCell id="Nh5hxRJggO41QT8DYPVS-145" style="rounded=0;orthogonalLoop=1;jettySize=auto;html=1;exitX=1;exitY=1;exitDx=0;exitDy=0;entryX=0.5;entryY=0;entryDx=0;entryDy=0;endArrow=none;startFill=0;" edge="1" parent="1" source="Nh5hxRJggO41QT8DYPVS-136" target="Nh5hxRJggO41QT8DYPVS-140">
          <mxGeometry relative="1" as="geometry">
            <mxPoint x="298" y="1324.86" as="sourcePoint" />
            <mxPoint x="230" y="1405.86" as="targetPoint" />
          </mxGeometry>
        </mxCell>
        <mxCell id="Nh5hxRJggO41QT8DYPVS-146" style="rounded=0;orthogonalLoop=1;jettySize=auto;html=1;exitX=1;exitY=1;exitDx=0;exitDy=0;entryX=0.5;entryY=0;entryDx=0;entryDy=0;endArrow=none;startFill=0;" edge="1" parent="1" source="Nh5hxRJggO41QT8DYPVS-135" target="Nh5hxRJggO41QT8DYPVS-138">
          <mxGeometry relative="1" as="geometry">
            <mxPoint x="298" y="1324.86" as="sourcePoint" />
            <mxPoint x="230" y="1405.86" as="targetPoint" />
          </mxGeometry>
        </mxCell>
        <mxCell id="Nh5hxRJggO41QT8DYPVS-147" style="rounded=0;orthogonalLoop=1;jettySize=auto;html=1;exitX=0;exitY=1;exitDx=0;exitDy=0;entryX=0.5;entryY=0;entryDx=0;entryDy=0;endArrow=none;startFill=0;" edge="1" parent="1" source="Nh5hxRJggO41QT8DYPVS-136" target="Nh5hxRJggO41QT8DYPVS-139">
          <mxGeometry relative="1" as="geometry">
            <mxPoint x="324" y="1319.86" as="sourcePoint" />
            <mxPoint x="390" y="1405.86" as="targetPoint" />
          </mxGeometry>
        </mxCell>
        <mxCell id="Nh5hxRJggO41QT8DYPVS-148" style="rounded=0;orthogonalLoop=1;jettySize=auto;html=1;exitX=1;exitY=1;exitDx=0;exitDy=0;entryX=0.5;entryY=0;entryDx=0;entryDy=0;endArrow=none;startFill=0;" edge="1" parent="1" source="Nh5hxRJggO41QT8DYPVS-137" target="Nh5hxRJggO41QT8DYPVS-142">
          <mxGeometry relative="1" as="geometry">
            <mxPoint x="298" y="1324.86" as="sourcePoint" />
            <mxPoint x="230" y="1405.86" as="targetPoint" />
          </mxGeometry>
        </mxCell>
        <mxCell id="Nh5hxRJggO41QT8DYPVS-149" style="rounded=0;orthogonalLoop=1;jettySize=auto;html=1;exitX=0;exitY=1;exitDx=0;exitDy=0;entryX=0.5;entryY=0;entryDx=0;entryDy=0;endArrow=none;startFill=0;" edge="1" parent="1" source="Nh5hxRJggO41QT8DYPVS-137" target="Nh5hxRJggO41QT8DYPVS-141">
          <mxGeometry relative="1" as="geometry">
            <mxPoint x="308" y="1334.86" as="sourcePoint" />
            <mxPoint x="240" y="1415.86" as="targetPoint" />
          </mxGeometry>
        </mxCell>
        <mxCell id="Nh5hxRJggO41QT8DYPVS-150" style="rounded=0;orthogonalLoop=1;jettySize=auto;html=1;exitX=0;exitY=1;exitDx=0;exitDy=0;entryX=0.5;entryY=0;entryDx=0;entryDy=0;endArrow=none;startFill=0;" edge="1" parent="1" source="Nh5hxRJggO41QT8DYPVS-138" target="Nh5hxRJggO41QT8DYPVS-143">
          <mxGeometry relative="1" as="geometry">
            <mxPoint x="216" y="1439.86" as="sourcePoint" />
            <mxPoint x="190" y="1525.86" as="targetPoint" />
          </mxGeometry>
        </mxCell>
        <mxCell id="Nh5hxRJggO41QT8DYPVS-151" value="31" style="ellipse;whiteSpace=wrap;html=1;aspect=fixed;" vertex="1" parent="1">
          <mxGeometry x="400" y="1515.86" width="40" height="40" as="geometry" />
        </mxCell>
        <mxCell id="Nh5hxRJggO41QT8DYPVS-152" style="rounded=0;orthogonalLoop=1;jettySize=auto;html=1;exitX=1;exitY=1;exitDx=0;exitDy=0;entryX=0.5;entryY=0;entryDx=0;entryDy=0;endArrow=none;startFill=0;" edge="1" parent="1" source="Nh5hxRJggO41QT8DYPVS-138" target="Nh5hxRJggO41QT8DYPVS-151">
          <mxGeometry relative="1" as="geometry">
            <mxPoint x="376" y="1439.86" as="sourcePoint" />
            <mxPoint x="350" y="1525.86" as="targetPoint" />
          </mxGeometry>
        </mxCell>
        <mxCell id="Nh5hxRJggO41QT8DYPVS-153" style="rounded=0;orthogonalLoop=1;jettySize=auto;html=1;exitX=0;exitY=1;exitDx=0;exitDy=0;entryX=1;entryY=0;entryDx=0;entryDy=0;endArrow=none;startFill=0;" edge="1" parent="1" target="Nh5hxRJggO41QT8DYPVS-155" source="Nh5hxRJggO41QT8DYPVS-171">
          <mxGeometry relative="1" as="geometry">
            <mxPoint x="1005.8578643762692" y="1190.0021356237312" as="sourcePoint" />
          </mxGeometry>
        </mxCell>
        <mxCell id="Nh5hxRJggO41QT8DYPVS-154" style="rounded=0;orthogonalLoop=1;jettySize=auto;html=1;exitX=1;exitY=1;exitDx=0;exitDy=0;entryX=0;entryY=0;entryDx=0;entryDy=0;endArrow=none;startFill=0;" edge="1" parent="1" target="Nh5hxRJggO41QT8DYPVS-156" source="Nh5hxRJggO41QT8DYPVS-171">
          <mxGeometry relative="1" as="geometry">
            <mxPoint x="1034.1421356237308" y="1190.0021356237312" as="sourcePoint" />
          </mxGeometry>
        </mxCell>
        <mxCell id="Nh5hxRJggO41QT8DYPVS-155" value="10" style="ellipse;whiteSpace=wrap;html=1;aspect=fixed;" vertex="1" parent="1">
          <mxGeometry x="880" y="1275.8600000000001" width="40" height="40" as="geometry" />
        </mxCell>
        <mxCell id="Nh5hxRJggO41QT8DYPVS-156" value="19" style="ellipse;whiteSpace=wrap;html=1;aspect=fixed;" vertex="1" parent="1">
          <mxGeometry x="1120" y="1275.8600000000001" width="40" height="40" as="geometry" />
        </mxCell>
        <mxCell id="Nh5hxRJggO41QT8DYPVS-157" value="26" style="ellipse;whiteSpace=wrap;html=1;aspect=fixed;" vertex="1" parent="1">
          <mxGeometry x="800" y="1395.8600000000001" width="40" height="40" as="geometry" />
        </mxCell>
        <mxCell id="Nh5hxRJggO41QT8DYPVS-158" value="14" style="ellipse;whiteSpace=wrap;html=1;aspect=fixed;" vertex="1" parent="1">
          <mxGeometry x="960" y="1395.8600000000001" width="40" height="40" as="geometry" />
        </mxCell>
        <mxCell id="Nh5hxRJggO41QT8DYPVS-159" value="42" style="ellipse;whiteSpace=wrap;html=1;aspect=fixed;" vertex="1" parent="1">
          <mxGeometry x="1040" y="1395.8600000000001" width="40" height="40" as="geometry" />
        </mxCell>
        <mxCell id="Nh5hxRJggO41QT8DYPVS-160" value="27" style="ellipse;whiteSpace=wrap;html=1;aspect=fixed;" vertex="1" parent="1">
          <mxGeometry x="1200" y="1395.8600000000001" width="40" height="40" as="geometry" />
        </mxCell>
        <mxCell id="Nh5hxRJggO41QT8DYPVS-161" value="44" style="ellipse;whiteSpace=wrap;html=1;aspect=fixed;" vertex="1" parent="1">
          <mxGeometry x="760" y="1515.8600000000001" width="40" height="40" as="geometry" />
        </mxCell>
        <mxCell id="Nh5hxRJggO41QT8DYPVS-162" value="35" style="ellipse;whiteSpace=wrap;html=1;aspect=fixed;" vertex="1" parent="1">
          <mxGeometry x="840" y="1515.8600000000001" width="40" height="40" as="geometry" />
        </mxCell>
        <mxCell id="Nh5hxRJggO41QT8DYPVS-163" value="33" style="ellipse;whiteSpace=wrap;html=1;aspect=fixed;" vertex="1" parent="1">
          <mxGeometry x="920" y="1515.8600000000001" width="40" height="40" as="geometry" />
        </mxCell>
        <mxCell id="Nh5hxRJggO41QT8DYPVS-164" style="rounded=0;orthogonalLoop=1;jettySize=auto;html=1;exitX=0;exitY=1;exitDx=0;exitDy=0;entryX=0.5;entryY=0;entryDx=0;entryDy=0;endArrow=none;startFill=0;" edge="1" parent="1" source="Nh5hxRJggO41QT8DYPVS-155" target="Nh5hxRJggO41QT8DYPVS-157">
          <mxGeometry relative="1" as="geometry">
            <mxPoint x="1016" y="1199.8600000000001" as="sourcePoint" />
            <mxPoint x="924" y="1291.8600000000001" as="targetPoint" />
          </mxGeometry>
        </mxCell>
        <mxCell id="Nh5hxRJggO41QT8DYPVS-165" style="rounded=0;orthogonalLoop=1;jettySize=auto;html=1;exitX=1;exitY=1;exitDx=0;exitDy=0;entryX=0.5;entryY=0;entryDx=0;entryDy=0;endArrow=none;startFill=0;" edge="1" parent="1" source="Nh5hxRJggO41QT8DYPVS-156" target="Nh5hxRJggO41QT8DYPVS-160">
          <mxGeometry relative="1" as="geometry">
            <mxPoint x="898" y="1324.8600000000001" as="sourcePoint" />
            <mxPoint x="830" y="1405.8600000000001" as="targetPoint" />
          </mxGeometry>
        </mxCell>
        <mxCell id="Nh5hxRJggO41QT8DYPVS-166" style="rounded=0;orthogonalLoop=1;jettySize=auto;html=1;exitX=1;exitY=1;exitDx=0;exitDy=0;entryX=0.5;entryY=0;entryDx=0;entryDy=0;endArrow=none;startFill=0;" edge="1" parent="1" source="Nh5hxRJggO41QT8DYPVS-155" target="Nh5hxRJggO41QT8DYPVS-158">
          <mxGeometry relative="1" as="geometry">
            <mxPoint x="898" y="1324.8600000000001" as="sourcePoint" />
            <mxPoint x="830" y="1405.8600000000001" as="targetPoint" />
          </mxGeometry>
        </mxCell>
        <mxCell id="Nh5hxRJggO41QT8DYPVS-167" style="rounded=0;orthogonalLoop=1;jettySize=auto;html=1;exitX=0;exitY=1;exitDx=0;exitDy=0;entryX=0.5;entryY=0;entryDx=0;entryDy=0;endArrow=none;startFill=0;" edge="1" parent="1" source="Nh5hxRJggO41QT8DYPVS-156" target="Nh5hxRJggO41QT8DYPVS-159">
          <mxGeometry relative="1" as="geometry">
            <mxPoint x="924" y="1319.8600000000001" as="sourcePoint" />
            <mxPoint x="990" y="1405.8600000000001" as="targetPoint" />
          </mxGeometry>
        </mxCell>
        <mxCell id="Nh5hxRJggO41QT8DYPVS-168" style="rounded=0;orthogonalLoop=1;jettySize=auto;html=1;exitX=1;exitY=1;exitDx=0;exitDy=0;entryX=0.5;entryY=0;entryDx=0;entryDy=0;endArrow=none;startFill=0;" edge="1" parent="1" source="Nh5hxRJggO41QT8DYPVS-157" target="Nh5hxRJggO41QT8DYPVS-162">
          <mxGeometry relative="1" as="geometry">
            <mxPoint x="898" y="1324.8600000000001" as="sourcePoint" />
            <mxPoint x="830" y="1405.8600000000001" as="targetPoint" />
          </mxGeometry>
        </mxCell>
        <mxCell id="Nh5hxRJggO41QT8DYPVS-169" style="rounded=0;orthogonalLoop=1;jettySize=auto;html=1;exitX=0;exitY=1;exitDx=0;exitDy=0;entryX=0.5;entryY=0;entryDx=0;entryDy=0;endArrow=none;startFill=0;" edge="1" parent="1" source="Nh5hxRJggO41QT8DYPVS-157" target="Nh5hxRJggO41QT8DYPVS-161">
          <mxGeometry relative="1" as="geometry">
            <mxPoint x="908" y="1334.8600000000001" as="sourcePoint" />
            <mxPoint x="840" y="1415.8600000000001" as="targetPoint" />
          </mxGeometry>
        </mxCell>
        <mxCell id="Nh5hxRJggO41QT8DYPVS-170" style="rounded=0;orthogonalLoop=1;jettySize=auto;html=1;exitX=0;exitY=1;exitDx=0;exitDy=0;entryX=0.5;entryY=0;entryDx=0;entryDy=0;endArrow=none;startFill=0;" edge="1" parent="1" source="Nh5hxRJggO41QT8DYPVS-158" target="Nh5hxRJggO41QT8DYPVS-163">
          <mxGeometry relative="1" as="geometry">
            <mxPoint x="816" y="1439.8600000000001" as="sourcePoint" />
            <mxPoint x="790" y="1525.8600000000001" as="targetPoint" />
          </mxGeometry>
        </mxCell>
        <mxCell id="Nh5hxRJggO41QT8DYPVS-171" value="31" style="ellipse;whiteSpace=wrap;html=1;aspect=fixed;fillColor=#fff2cc;strokeColor=#d6b656;" vertex="1" parent="1">
          <mxGeometry x="1000" y="1160" width="40" height="40" as="geometry" />
        </mxCell>
        <mxCell id="Nh5hxRJggO41QT8DYPVS-173" style="rounded=0;orthogonalLoop=1;jettySize=auto;html=1;exitX=0;exitY=1;exitDx=0;exitDy=0;entryX=1;entryY=0;entryDx=0;entryDy=0;endArrow=none;startFill=0;" edge="1" parent="1" source="Nh5hxRJggO41QT8DYPVS-191" target="Nh5hxRJggO41QT8DYPVS-175">
          <mxGeometry relative="1" as="geometry">
            <mxPoint x="405.85786437626916" y="1680.0021356237312" as="sourcePoint" />
          </mxGeometry>
        </mxCell>
        <mxCell id="Nh5hxRJggO41QT8DYPVS-174" style="rounded=0;orthogonalLoop=1;jettySize=auto;html=1;exitX=1;exitY=1;exitDx=0;exitDy=0;entryX=0;entryY=0;entryDx=0;entryDy=0;endArrow=none;startFill=0;" edge="1" parent="1" source="Nh5hxRJggO41QT8DYPVS-191" target="Nh5hxRJggO41QT8DYPVS-176">
          <mxGeometry relative="1" as="geometry">
            <mxPoint x="434.14213562373084" y="1680.0021356237312" as="sourcePoint" />
          </mxGeometry>
        </mxCell>
        <mxCell id="Nh5hxRJggO41QT8DYPVS-175" value="31" style="ellipse;whiteSpace=wrap;html=1;aspect=fixed;fillColor=#fff2cc;strokeColor=#d6b656;" vertex="1" parent="1">
          <mxGeometry x="280" y="1760" width="40" height="40" as="geometry" />
        </mxCell>
        <mxCell id="Nh5hxRJggO41QT8DYPVS-176" value="19" style="ellipse;whiteSpace=wrap;html=1;aspect=fixed;" vertex="1" parent="1">
          <mxGeometry x="520" y="1760" width="40" height="40" as="geometry" />
        </mxCell>
        <mxCell id="Nh5hxRJggO41QT8DYPVS-177" value="26" style="ellipse;whiteSpace=wrap;html=1;aspect=fixed;" vertex="1" parent="1">
          <mxGeometry x="200" y="1880" width="40" height="40" as="geometry" />
        </mxCell>
        <mxCell id="Nh5hxRJggO41QT8DYPVS-178" value="14" style="ellipse;whiteSpace=wrap;html=1;aspect=fixed;" vertex="1" parent="1">
          <mxGeometry x="360" y="1880" width="40" height="40" as="geometry" />
        </mxCell>
        <mxCell id="Nh5hxRJggO41QT8DYPVS-179" value="42" style="ellipse;whiteSpace=wrap;html=1;aspect=fixed;" vertex="1" parent="1">
          <mxGeometry x="440" y="1880" width="40" height="40" as="geometry" />
        </mxCell>
        <mxCell id="Nh5hxRJggO41QT8DYPVS-180" value="27" style="ellipse;whiteSpace=wrap;html=1;aspect=fixed;" vertex="1" parent="1">
          <mxGeometry x="600" y="1880" width="40" height="40" as="geometry" />
        </mxCell>
        <mxCell id="Nh5hxRJggO41QT8DYPVS-181" value="44" style="ellipse;whiteSpace=wrap;html=1;aspect=fixed;" vertex="1" parent="1">
          <mxGeometry x="160" y="2000" width="40" height="40" as="geometry" />
        </mxCell>
        <mxCell id="Nh5hxRJggO41QT8DYPVS-182" value="35" style="ellipse;whiteSpace=wrap;html=1;aspect=fixed;" vertex="1" parent="1">
          <mxGeometry x="240" y="2000" width="40" height="40" as="geometry" />
        </mxCell>
        <mxCell id="Nh5hxRJggO41QT8DYPVS-183" value="33" style="ellipse;whiteSpace=wrap;html=1;aspect=fixed;" vertex="1" parent="1">
          <mxGeometry x="320" y="2000" width="40" height="40" as="geometry" />
        </mxCell>
        <mxCell id="Nh5hxRJggO41QT8DYPVS-184" style="rounded=0;orthogonalLoop=1;jettySize=auto;html=1;exitX=0;exitY=1;exitDx=0;exitDy=0;entryX=0.5;entryY=0;entryDx=0;entryDy=0;endArrow=none;startFill=0;" edge="1" parent="1" source="Nh5hxRJggO41QT8DYPVS-175" target="Nh5hxRJggO41QT8DYPVS-177">
          <mxGeometry relative="1" as="geometry">
            <mxPoint x="416" y="1684" as="sourcePoint" />
            <mxPoint x="324" y="1776" as="targetPoint" />
          </mxGeometry>
        </mxCell>
        <mxCell id="Nh5hxRJggO41QT8DYPVS-185" style="rounded=0;orthogonalLoop=1;jettySize=auto;html=1;exitX=1;exitY=1;exitDx=0;exitDy=0;entryX=0.5;entryY=0;entryDx=0;entryDy=0;endArrow=none;startFill=0;" edge="1" parent="1" source="Nh5hxRJggO41QT8DYPVS-176" target="Nh5hxRJggO41QT8DYPVS-180">
          <mxGeometry relative="1" as="geometry">
            <mxPoint x="298" y="1809" as="sourcePoint" />
            <mxPoint x="230" y="1890" as="targetPoint" />
          </mxGeometry>
        </mxCell>
        <mxCell id="Nh5hxRJggO41QT8DYPVS-186" style="rounded=0;orthogonalLoop=1;jettySize=auto;html=1;exitX=1;exitY=1;exitDx=0;exitDy=0;entryX=0.5;entryY=0;entryDx=0;entryDy=0;endArrow=none;startFill=0;" edge="1" parent="1" source="Nh5hxRJggO41QT8DYPVS-175" target="Nh5hxRJggO41QT8DYPVS-178">
          <mxGeometry relative="1" as="geometry">
            <mxPoint x="298" y="1809" as="sourcePoint" />
            <mxPoint x="230" y="1890" as="targetPoint" />
          </mxGeometry>
        </mxCell>
        <mxCell id="Nh5hxRJggO41QT8DYPVS-187" style="rounded=0;orthogonalLoop=1;jettySize=auto;html=1;exitX=0;exitY=1;exitDx=0;exitDy=0;entryX=0.5;entryY=0;entryDx=0;entryDy=0;endArrow=none;startFill=0;" edge="1" parent="1" source="Nh5hxRJggO41QT8DYPVS-176" target="Nh5hxRJggO41QT8DYPVS-179">
          <mxGeometry relative="1" as="geometry">
            <mxPoint x="324" y="1804" as="sourcePoint" />
            <mxPoint x="390" y="1890" as="targetPoint" />
          </mxGeometry>
        </mxCell>
        <mxCell id="Nh5hxRJggO41QT8DYPVS-188" style="rounded=0;orthogonalLoop=1;jettySize=auto;html=1;exitX=1;exitY=1;exitDx=0;exitDy=0;entryX=0.5;entryY=0;entryDx=0;entryDy=0;endArrow=none;startFill=0;" edge="1" parent="1" source="Nh5hxRJggO41QT8DYPVS-177" target="Nh5hxRJggO41QT8DYPVS-182">
          <mxGeometry relative="1" as="geometry">
            <mxPoint x="298" y="1809" as="sourcePoint" />
            <mxPoint x="230" y="1890" as="targetPoint" />
          </mxGeometry>
        </mxCell>
        <mxCell id="Nh5hxRJggO41QT8DYPVS-189" style="rounded=0;orthogonalLoop=1;jettySize=auto;html=1;exitX=0;exitY=1;exitDx=0;exitDy=0;entryX=0.5;entryY=0;entryDx=0;entryDy=0;endArrow=none;startFill=0;" edge="1" parent="1" source="Nh5hxRJggO41QT8DYPVS-177">
          <mxGeometry relative="1" as="geometry">
            <mxPoint x="308" y="1819" as="sourcePoint" />
            <mxPoint x="180" y="2000.0000000000005" as="targetPoint" />
          </mxGeometry>
        </mxCell>
        <mxCell id="Nh5hxRJggO41QT8DYPVS-190" style="rounded=0;orthogonalLoop=1;jettySize=auto;html=1;exitX=0;exitY=1;exitDx=0;exitDy=0;entryX=0.5;entryY=0;entryDx=0;entryDy=0;endArrow=none;startFill=0;" edge="1" parent="1" source="Nh5hxRJggO41QT8DYPVS-178" target="Nh5hxRJggO41QT8DYPVS-183">
          <mxGeometry relative="1" as="geometry">
            <mxPoint x="216" y="1924" as="sourcePoint" />
            <mxPoint x="190" y="2010" as="targetPoint" />
          </mxGeometry>
        </mxCell>
        <mxCell id="Nh5hxRJggO41QT8DYPVS-191" value="10" style="ellipse;whiteSpace=wrap;html=1;aspect=fixed;" vertex="1" parent="1">
          <mxGeometry x="400" y="1640" width="40" height="40" as="geometry" />
        </mxCell>
        <mxCell id="Nh5hxRJggO41QT8DYPVS-192" value="" style="shape=flexArrow;endArrow=classic;html=1;rounded=0;" edge="1" parent="1">
          <mxGeometry width="50" height="50" relative="1" as="geometry">
            <mxPoint x="670" y="280" as="sourcePoint" />
            <mxPoint x="730" y="280" as="targetPoint" />
          </mxGeometry>
        </mxCell>
        <mxCell id="Nh5hxRJggO41QT8DYPVS-193" value="" style="shape=flexArrow;endArrow=classic;html=1;rounded=0;" edge="1" parent="1">
          <mxGeometry width="50" height="50" relative="1" as="geometry">
            <mxPoint x="670" y="760" as="sourcePoint" />
            <mxPoint x="730" y="760" as="targetPoint" />
          </mxGeometry>
        </mxCell>
        <mxCell id="Nh5hxRJggO41QT8DYPVS-194" value="" style="shape=flexArrow;endArrow=classic;html=1;rounded=0;" edge="1" parent="1">
          <mxGeometry width="50" height="50" relative="1" as="geometry">
            <mxPoint x="720" y="520" as="sourcePoint" />
            <mxPoint x="680" y="560" as="targetPoint" />
          </mxGeometry>
        </mxCell>
        <mxCell id="Nh5hxRJggO41QT8DYPVS-195" value="" style="shape=flexArrow;endArrow=classic;html=1;rounded=0;" edge="1" parent="1">
          <mxGeometry width="50" height="50" relative="1" as="geometry">
            <mxPoint x="670" y="1360" as="sourcePoint" />
            <mxPoint x="730" y="1360" as="targetPoint" />
          </mxGeometry>
        </mxCell>
        <mxCell id="Nh5hxRJggO41QT8DYPVS-196" value="" style="shape=flexArrow;endArrow=classic;html=1;rounded=0;" edge="1" parent="1">
          <mxGeometry width="50" height="50" relative="1" as="geometry">
            <mxPoint x="670" y="1840" as="sourcePoint" />
            <mxPoint x="730" y="1840" as="targetPoint" />
          </mxGeometry>
        </mxCell>
        <mxCell id="Nh5hxRJggO41QT8DYPVS-197" value="" style="shape=flexArrow;endArrow=classic;html=1;rounded=0;" edge="1" parent="1">
          <mxGeometry width="50" height="50" relative="1" as="geometry">
            <mxPoint x="720" y="1600" as="sourcePoint" />
            <mxPoint x="680" y="1640" as="targetPoint" />
          </mxGeometry>
        </mxCell>
        <mxCell id="Nh5hxRJggO41QT8DYPVS-198" style="rounded=0;orthogonalLoop=1;jettySize=auto;html=1;exitX=0;exitY=1;exitDx=0;exitDy=0;entryX=1;entryY=0;entryDx=0;entryDy=0;endArrow=none;startFill=0;" edge="1" parent="1" source="Nh5hxRJggO41QT8DYPVS-216" target="Nh5hxRJggO41QT8DYPVS-200">
          <mxGeometry relative="1" as="geometry">
            <mxPoint x="1006.8578643762692" y="1680.0021356237312" as="sourcePoint" />
          </mxGeometry>
        </mxCell>
        <mxCell id="Nh5hxRJggO41QT8DYPVS-199" style="rounded=0;orthogonalLoop=1;jettySize=auto;html=1;exitX=1;exitY=1;exitDx=0;exitDy=0;entryX=0;entryY=0;entryDx=0;entryDy=0;endArrow=none;startFill=0;" edge="1" parent="1" source="Nh5hxRJggO41QT8DYPVS-216" target="Nh5hxRJggO41QT8DYPVS-201">
          <mxGeometry relative="1" as="geometry">
            <mxPoint x="1035.1421356237308" y="1680.0021356237312" as="sourcePoint" />
          </mxGeometry>
        </mxCell>
        <mxCell id="Nh5hxRJggO41QT8DYPVS-200" value="14" style="ellipse;whiteSpace=wrap;html=1;aspect=fixed;" vertex="1" parent="1">
          <mxGeometry x="881" y="1760" width="40" height="40" as="geometry" />
        </mxCell>
        <mxCell id="Nh5hxRJggO41QT8DYPVS-201" value="19" style="ellipse;whiteSpace=wrap;html=1;aspect=fixed;" vertex="1" parent="1">
          <mxGeometry x="1121" y="1760" width="40" height="40" as="geometry" />
        </mxCell>
        <mxCell id="Nh5hxRJggO41QT8DYPVS-202" value="26" style="ellipse;whiteSpace=wrap;html=1;aspect=fixed;" vertex="1" parent="1">
          <mxGeometry x="801" y="1880" width="40" height="40" as="geometry" />
        </mxCell>
        <mxCell id="Nh5hxRJggO41QT8DYPVS-203" value="31" style="ellipse;whiteSpace=wrap;html=1;aspect=fixed;fillColor=#fff2cc;strokeColor=#d6b656;" vertex="1" parent="1">
          <mxGeometry x="961" y="1880" width="40" height="40" as="geometry" />
        </mxCell>
        <mxCell id="Nh5hxRJggO41QT8DYPVS-204" value="42" style="ellipse;whiteSpace=wrap;html=1;aspect=fixed;" vertex="1" parent="1">
          <mxGeometry x="1041" y="1880" width="40" height="40" as="geometry" />
        </mxCell>
        <mxCell id="Nh5hxRJggO41QT8DYPVS-205" value="27" style="ellipse;whiteSpace=wrap;html=1;aspect=fixed;" vertex="1" parent="1">
          <mxGeometry x="1201" y="1880" width="40" height="40" as="geometry" />
        </mxCell>
        <mxCell id="Nh5hxRJggO41QT8DYPVS-206" value="44" style="ellipse;whiteSpace=wrap;html=1;aspect=fixed;" vertex="1" parent="1">
          <mxGeometry x="761" y="2000" width="40" height="40" as="geometry" />
        </mxCell>
        <mxCell id="Nh5hxRJggO41QT8DYPVS-207" value="35" style="ellipse;whiteSpace=wrap;html=1;aspect=fixed;" vertex="1" parent="1">
          <mxGeometry x="841" y="2000" width="40" height="40" as="geometry" />
        </mxCell>
        <mxCell id="Nh5hxRJggO41QT8DYPVS-208" value="33" style="ellipse;whiteSpace=wrap;html=1;aspect=fixed;" vertex="1" parent="1">
          <mxGeometry x="921" y="2000" width="40" height="40" as="geometry" />
        </mxCell>
        <mxCell id="Nh5hxRJggO41QT8DYPVS-209" style="rounded=0;orthogonalLoop=1;jettySize=auto;html=1;exitX=0;exitY=1;exitDx=0;exitDy=0;entryX=0.5;entryY=0;entryDx=0;entryDy=0;endArrow=none;startFill=0;" edge="1" parent="1" source="Nh5hxRJggO41QT8DYPVS-200" target="Nh5hxRJggO41QT8DYPVS-202">
          <mxGeometry relative="1" as="geometry">
            <mxPoint x="1017" y="1684" as="sourcePoint" />
            <mxPoint x="925" y="1776" as="targetPoint" />
          </mxGeometry>
        </mxCell>
        <mxCell id="Nh5hxRJggO41QT8DYPVS-210" style="rounded=0;orthogonalLoop=1;jettySize=auto;html=1;exitX=1;exitY=1;exitDx=0;exitDy=0;entryX=0.5;entryY=0;entryDx=0;entryDy=0;endArrow=none;startFill=0;" edge="1" parent="1" source="Nh5hxRJggO41QT8DYPVS-201" target="Nh5hxRJggO41QT8DYPVS-205">
          <mxGeometry relative="1" as="geometry">
            <mxPoint x="899" y="1809" as="sourcePoint" />
            <mxPoint x="831" y="1890" as="targetPoint" />
          </mxGeometry>
        </mxCell>
        <mxCell id="Nh5hxRJggO41QT8DYPVS-211" style="rounded=0;orthogonalLoop=1;jettySize=auto;html=1;exitX=1;exitY=1;exitDx=0;exitDy=0;entryX=0.5;entryY=0;entryDx=0;entryDy=0;endArrow=none;startFill=0;" edge="1" parent="1" source="Nh5hxRJggO41QT8DYPVS-200" target="Nh5hxRJggO41QT8DYPVS-203">
          <mxGeometry relative="1" as="geometry">
            <mxPoint x="899" y="1809" as="sourcePoint" />
            <mxPoint x="831" y="1890" as="targetPoint" />
          </mxGeometry>
        </mxCell>
        <mxCell id="Nh5hxRJggO41QT8DYPVS-212" style="rounded=0;orthogonalLoop=1;jettySize=auto;html=1;exitX=0;exitY=1;exitDx=0;exitDy=0;entryX=0.5;entryY=0;entryDx=0;entryDy=0;endArrow=none;startFill=0;" edge="1" parent="1" source="Nh5hxRJggO41QT8DYPVS-201" target="Nh5hxRJggO41QT8DYPVS-204">
          <mxGeometry relative="1" as="geometry">
            <mxPoint x="925" y="1804" as="sourcePoint" />
            <mxPoint x="991" y="1890" as="targetPoint" />
          </mxGeometry>
        </mxCell>
        <mxCell id="Nh5hxRJggO41QT8DYPVS-213" style="rounded=0;orthogonalLoop=1;jettySize=auto;html=1;exitX=1;exitY=1;exitDx=0;exitDy=0;entryX=0.5;entryY=0;entryDx=0;entryDy=0;endArrow=none;startFill=0;" edge="1" parent="1" source="Nh5hxRJggO41QT8DYPVS-202" target="Nh5hxRJggO41QT8DYPVS-207">
          <mxGeometry relative="1" as="geometry">
            <mxPoint x="899" y="1809" as="sourcePoint" />
            <mxPoint x="831" y="1890" as="targetPoint" />
          </mxGeometry>
        </mxCell>
        <mxCell id="Nh5hxRJggO41QT8DYPVS-214" style="rounded=0;orthogonalLoop=1;jettySize=auto;html=1;exitX=0;exitY=1;exitDx=0;exitDy=0;entryX=0.5;entryY=0;entryDx=0;entryDy=0;endArrow=none;startFill=0;" edge="1" parent="1" source="Nh5hxRJggO41QT8DYPVS-202">
          <mxGeometry relative="1" as="geometry">
            <mxPoint x="909" y="1819" as="sourcePoint" />
            <mxPoint x="781" y="2000.0000000000005" as="targetPoint" />
          </mxGeometry>
        </mxCell>
        <mxCell id="Nh5hxRJggO41QT8DYPVS-215" style="rounded=0;orthogonalLoop=1;jettySize=auto;html=1;exitX=0;exitY=1;exitDx=0;exitDy=0;entryX=0.5;entryY=0;entryDx=0;entryDy=0;endArrow=none;startFill=0;" edge="1" parent="1" source="Nh5hxRJggO41QT8DYPVS-203" target="Nh5hxRJggO41QT8DYPVS-208">
          <mxGeometry relative="1" as="geometry">
            <mxPoint x="817" y="1924" as="sourcePoint" />
            <mxPoint x="791" y="2010" as="targetPoint" />
          </mxGeometry>
        </mxCell>
        <mxCell id="Nh5hxRJggO41QT8DYPVS-216" value="10" style="ellipse;whiteSpace=wrap;html=1;aspect=fixed;" vertex="1" parent="1">
          <mxGeometry x="1001" y="1640" width="40" height="40" as="geometry" />
        </mxCell>
        <mxCell id="Nh5hxRJggO41QT8DYPVS-237" value="8" style="ellipse;whiteSpace=wrap;html=1;aspect=fixed;fillColor=#f8cecc;strokeColor=#b85450;" vertex="1" parent="1">
          <mxGeometry x="400" y="1160" width="40" height="40" as="geometry" />
        </mxCell>
      </root>
    </mxGraphModel>
  </diagram>
</mxfile>
